<?xml version="1.0" encoding="UTF-8" standalone="no"?>
<!DOCTYPE svg PUBLIC "-//W3C//DTD SVG 1.1//EN" "http://www.w3.org/Graphics/SVG/1.1/DTD/svg11.dtd">
<svg xmlns="http://www.w3.org/2000/svg" version="1.1" viewBox="0 0 230 230" width="230.0pt" height="230.0pt" xmlns:xlink="http://www.w3.org/1999/xlink">
<defs>
<path d="M 0.00 0.00 L 230.00 0.00 L 230.00 230.00 L 0.00 230.00 L 0.00 0.00 Z M 178.85 173.22 C 169.67 152.24 159.61 131.66 150.32 110.72 C 148.65 107.28 146.89 102.54 143.60 100.36 C 139.18 98.18 133.07 98.74 130.11 103.09 C 125.50 109.21 121.45 115.76 117.03 122.03 C 113.95 126.32 112.12 130.54 108.04 133.88 C 102.77 124.25 98.95 113.84 93.86 104.12 C 91.26 97.87 81.42 97.57 77.46 102.47 C 74.47 105.85 72.22 109.93 69.61 113.62 C 50.96 140.98 32.48 168.46 13.70 195.72 C 12.29 197.85 10.87 200.39 10.70 202.98 C 10.77 207.07 13.48 211.17 17.36 212.61 C 21.83 214.19 27.22 213.07 29.80 208.83 C 47.15 183.11 64.11 158.09 81.64 132.48 C 82.40 131.41 83.88 130.67 84.58 132.25 C 91.18 147.82 98.81 162.91 105.62 178.39 C 107.63 182.39 109.45 188.19 113.30 190.74 C 118.40 194.29 125.93 191.46 128.11 185.90 C 129.52 180.61 127.38 176.45 125.25 171.80 C 123.44 167.69 121.13 163.77 119.54 159.58 C 118.77 157.38 119.23 155.28 120.50 153.38 C 123.07 149.37 126.07 145.64 128.63 141.62 C 131.23 137.86 132.88 134.10 136.92 131.61 C 139.76 136.20 141.63 141.20 143.92 146.06 C 149.84 158.85 155.80 171.59 161.56 184.44 C 163.56 188.88 166.82 192.43 172.00 192.49 C 176.67 191.99 180.68 188.51 184.35 185.85 C 196.56 177.49 206.13 165.87 212.67 152.64 C 217.64 143.12 220.67 132.70 221.74 122.02 C 223.50 111.57 222.48 101.07 219.84 90.86 C 217.96 83.54 215.87 76.40 212.45 69.63 C 207.10 58.64 198.85 49.31 190.05 40.95 C 183.56 34.87 175.75 32.14 167.94 28.20 C 157.07 22.85 145.07 20.40 132.98 20.38 C 120.55 20.95 108.38 22.86 97.01 28.15 C 87.84 32.42 78.83 38.52 71.49 45.48 C 57.51 59.35 47.75 77.31 44.96 96.91 C 44.35 102.50 42.32 109.31 44.55 114.64 C 46.09 118.55 51.82 120.03 54.72 116.71 C 57.97 113.54 57.08 108.18 57.52 104.02 C 58.34 95.47 60.26 86.82 64.06 79.07 C 70.18 66.21 79.62 54.34 91.72 46.64 C 99.55 41.21 108.41 37.79 117.65 35.66 C 125.14 33.69 133.31 33.91 140.97 34.55 C 147.08 35.45 153.55 36.39 159.27 38.68 C 168.72 42.38 177.43 48.28 184.98 55.03 C 194.11 63.80 200.88 75.02 205.04 86.94 C 208.91 98.68 209.87 111.45 208.04 123.65 C 204.96 143.08 194.55 161.28 178.85 173.22 Z" id="p0" />
<path d="M 132.98 20.38 C 145.07 20.40 157.07 22.85 167.94 28.20 C 175.75 32.14 183.56 34.87 190.05 40.95 C 198.85 49.31 207.10 58.64 212.45 69.63 C 215.87 76.40 217.96 83.54 219.84 90.86 C 222.48 101.07 223.50 111.57 221.74 122.02 C 220.67 132.70 217.64 143.12 212.67 152.64 C 206.13 165.87 196.56 177.49 184.35 185.85 C 182.26 181.75 180.58 177.48 178.85 173.22 C 194.55 161.28 204.96 143.08 208.04 123.65 C 209.87 111.45 208.91 98.68 205.04 86.94 C 200.88 75.02 194.11 63.80 184.98 55.03 C 177.43 48.28 168.72 42.38 159.27 38.68 C 153.55 36.39 147.08 35.45 140.97 34.55 C 133.31 33.91 125.14 33.69 117.65 35.66 C 108.41 37.79 99.55 41.21 91.72 46.64 C 79.62 54.34 70.18 66.21 64.06 79.07 C 60.26 86.82 58.34 95.47 57.52 104.02 C 57.08 108.18 57.97 113.54 54.72 116.71 C 51.82 120.03 46.09 118.55 44.55 114.64 C 42.32 109.31 44.35 102.50 44.96 96.91 C 47.75 77.31 57.51 59.35 71.49 45.48 C 78.83 38.52 87.84 32.42 97.01 28.15 C 108.38 22.86 120.55 20.95 132.98 20.38 Z" id="p1" />
<path d="M 93.86 104.12 C 98.95 113.84 102.77 124.25 108.04 133.88 C 112.12 130.54 113.95 126.32 117.03 122.03 C 121.45 115.76 125.50 109.21 130.11 103.09 C 133.07 98.74 139.18 98.18 143.60 100.36 C 146.89 102.54 148.65 107.28 150.32 110.72 C 159.61 131.66 169.67 152.24 178.85 173.22 C 180.58 177.48 182.26 181.75 184.35 185.85 C 180.68 188.51 176.67 191.99 172.00 192.49 C 166.82 192.43 163.56 188.88 161.56 184.44 C 155.80 171.59 149.84 158.85 143.92 146.06 C 141.63 141.20 139.76 136.20 136.92 131.61 C 132.88 134.10 131.23 137.86 128.63 141.62 C 126.07 145.64 123.07 149.37 120.50 153.38 C 119.23 155.28 118.77 157.38 119.54 159.58 C 121.13 163.77 123.44 167.69 125.25 171.80 C 127.38 176.45 129.52 180.61 128.11 185.90 C 125.93 191.46 118.40 194.29 113.30 190.74 C 109.45 188.19 107.63 182.39 105.62 178.39 C 98.81 162.91 91.18 147.82 84.58 132.25 C 83.88 130.67 82.40 131.41 81.64 132.48 C 64.11 158.09 47.15 183.11 29.80 208.83 C 27.22 213.07 21.83 214.19 17.36 212.61 C 13.48 211.17 10.77 207.07 10.70 202.98 C 10.87 200.39 12.29 197.85 13.70 195.72 C 32.48 168.46 50.96 140.98 69.61 113.62 C 72.22 109.93 74.47 105.85 77.46 102.47 C 81.42 97.57 91.26 97.87 93.86 104.12 Z" id="p2" />
</defs>
<g stroke-width="10pt">
<use stroke="#feb811" xlink:href="#p1" />
<use stroke="#84a33e" xlink:href="#p2" />
</g>
<g>
<use fill="#feb811" xlink:href="#p1" />
<use fill="#84a33e" xlink:href="#p2" />
</g>
</svg>