<?xml version="1.0" encoding="utf-8"?>
<!DOCTYPE svg PUBLIC "-//W3C//DTD SVG 20010904//EN" "http://www.w3.org/TR/2001/REC-SVG-20010904/DTD/svg10.dtd">
<svg version="1.0" xmlns="http://www.w3.org/2000/svg" width="546px" height="545px" viewBox="0 0 546 545" preserveAspectRatio="xMidYMid meet">
 <g fill="#ebab2a">
  <path d="M413.60 448.10 c-1.45 -3 -2.60 -6.15 -2.60 -7 0 -1.60 0.70 -2.20 1.15 -0.95 0.25 0.70 6.60 -3.45 13.95 -9.20 36.75 -28.55 62.45 -70.05 71.85 -115.85 4.50 -21.90 5.30 -46.05 2.25 -68.10 -4.20 -30.80 -15.90 -60.50 -33.85 -86.10 -7.35 -10.45 -12.45 -16.50 -21.85 -25.95 -16.10 -16.15 -31.35 -27.20 -50.95 -36.95 -19.50 -9.70 -39 -15.55 -62.55 -18.80 -7.90 -1.05 -29 -1.50 -37.50 -0.75 -37.15 3.25 -70.05 15.70 -99.80 37.80 -14.75 10.95 -30.20 26.60 -41.05 41.50 -18.95 26.05 -31.40 57 -35.90 88.95 -2.65 18.70 -2.40 41 0.60 59.90 0.45 2.95 0.70 5.50 0.55 5.65 -0.45 0.50 -11.40 2.45 -11.70 2.10 -0.90 -0.90 -3 -17.40 -3.70 -29.45 -0.95 -15.20 0.60 -36 3.80 -51.90 8.95 -44.70 32.90 -86.45 66.55 -116 31.55 -27.70 68.30 -44.45 109.90 -50.05 9.75 -1.30 30.60 -1.80 41 -1 66.85 5.25 126.40 42.30 160.80 99.95 16 26.75 24.80 52.70 28.80 84.85 1.25 10.05 1.25 37.45 0 48 -4.25 35.50 -16.60 68.15 -36.50 96.75 -14.40 20.65 -34.55 40.50 -54.85 54 -1.80 1.20 -3.65 2.55 -4.15 3.10 -0.50 0.50 -1.05 0.90 -1.30 0.90 -0.20 0 -1.55 -2.45 -2.95 -5.40z"/>
 </g>
 <g fill="#7d993e">
  <path d="M31.50 509.45 c-2.35 -1.65 -4.55 -3.20 -4.95 -3.40 -0.70 -0.40 3.35 -6.55 48.50 -73.95 14.80 -22 32.55 -48.50 85.85 -128.10 14.30 -21.30 26.15 -38.75 26.40 -38.85 0.25 -0.10 1.85 2.60 3.55 6 1.70 3.35 5.20 10.15 7.80 15.10 2.55 4.95 7.10 13.70 10.10 19.50 6.75 13.15 12.45 24.25 16.50 32 1.70 3.30 6.10 11.80 9.75 18.90 3.65 7.10 6.80 12.85 7.05 12.75 0.45 -0.15 5.70 -7.15 49.60 -66.50 15.15 -20.55 27.80 -37.30 28.05 -37.20 0.40 0.10 15.40 28.45 74.65 141.05 3.50 6.60 9.05 17.20 12.35 23.50 5.10 9.65 11.30 21.95 11.30 22.45 0 0.25 -11 5.45 -11.20 5.25 -0.10 -0.10 -2.75 -5.25 -5.90 -11.45 -3.15 -6.20 -7.80 -15.05 -10.25 -19.75 -2.50 -4.65 -9.10 -17.25 -14.75 -28 -31.20 -59.30 -50.95 -96.80 -54.90 -104.20 -1.50 -2.85 -2.90 -5.25 -3.10 -5.25 -0.30 -0.05 -38.80 51.65 -66.80 89.55 l-2.70 3.65 7.85 15.35 c4.35 8.50 8.70 17 9.75 18.90 1.05 1.95 4 7.65 6.60 12.75 2.65 5.10 7.25 14.10 10.35 20.05 3.05 5.95 5.55 11 5.55 11.25 0 0.70 -10.55 5.85 -11 5.35 -0.35 -0.40 -3.65 -6.70 -12 -22.90 -2.55 -4.95 -6.15 -11.90 -8 -15.50 -1.85 -3.55 -5.45 -10.55 -8 -15.50 -2.55 -4.95 -6.05 -11.70 -7.75 -15 -1.70 -3.30 -5.40 -10.40 -8.15 -15.75 -4.80 -9.40 -23.55 -45.75 -31.60 -61.25 -2.10 -4.10 -6.50 -12.60 -9.70 -18.85 -3.25 -6.25 -6 -11.45 -6.20 -11.60 -0.20 -0.10 -11.60 16.60 -25.35 37.10 -13.75 20.55 -39.55 59.05 -57.35 85.60 -17.75 26.55 -40.10 59.90 -49.65 74.15 -9.55 14.20 -17.50 25.85 -17.65 25.80 -0.20 0 -2.25 -1.40 -4.60 -3z"/>
 </g>
</svg>