<?xml version="1.0" encoding="UTF-8"?>
<svg xmlns="http://www.w3.org/2000/svg" xmlns:xlink="http://www.w3.org/1999/xlink" width="500pt" height="500pt" viewBox="0 0 500 500" version="1.1">
<g id="surface1">
<path style=" stroke:none;fill-rule:nonzero;fill:rgb(0%,0%,0%);fill-opacity:1;" d="M 155.5625 26.71875 C 154.140625 21.148438 149.773438 16.8125 144.195312 15.425781 C 138.617188 14.035156 132.730469 15.824219 128.863281 20.074219 C 124.996094 24.328125 123.777344 30.359375 125.6875 35.78125 L 138.5 78.03125 C 109.773438 107.21875 93.699219 146.546875 93.75 187.5 L 406.25 187.5 C 406.300781 146.546875 390.226562 107.21875 361.5 78.03125 L 374.3125 35.78125 C 376.222656 30.359375 375.003906 24.328125 371.136719 20.074219 C 367.269531 15.824219 361.382812 14.035156 355.804688 15.425781 C 350.226562 16.8125 345.859375 21.148438 344.4375 26.71875 L 335.34375 56.59375 C 309.972656 40.011719 280.308594 31.203125 250 31.25 C 219.691406 31.207031 190.027344 40.015625 164.65625 56.59375 L 155.59375 26.71875 Z M 155.5625 26.71875 "/>
<path style=" stroke:none;fill-rule:nonzero;fill:rgb(0%,0%,0%);fill-opacity:1;" d="M 406.25 187.5 L 406.25 218.75 L 265.625 218.75 L 265.625 499.21875 C 345.46875 491.195312 406.25 423.996094 406.25 343.75 L 421.875 343.75 C 430.503906 343.75 437.5 350.746094 437.5 359.375 L 437.5 375 C 437.5 383.628906 444.496094 390.625 453.125 390.625 C 461.753906 390.625 468.75 383.628906 468.75 375 L 468.75 359.375 C 468.75 333.488281 447.761719 312.5 421.875 312.5 L 406.25 312.5 L 406.25 281.25 L 453.125 281.25 C 461.753906 281.25 468.75 274.253906 468.75 265.625 C 468.75 256.996094 461.753906 250 453.125 250 L 406.25 250 L 406.25 218.75 L 421.875 218.75 C 447.761719 218.75 468.75 197.761719 468.75 171.875 L 468.75 156.25 C 468.75 147.621094 461.753906 140.625 453.125 140.625 C 444.496094 140.625 437.5 147.621094 437.5 156.25 L 437.5 171.875 C 437.5 180.503906 430.503906 187.5 421.875 187.5 Z M 234.375 499.21875 L 234.375 218.75 L 93.75 218.75 L 93.75 187.5 L 78.125 187.5 C 69.496094 187.5 62.5 180.503906 62.5 171.875 L 62.5 156.25 C 62.5 147.621094 55.503906 140.625 46.875 140.625 C 38.246094 140.625 31.25 147.621094 31.25 156.25 L 31.25 171.875 C 31.25 197.761719 52.238281 218.75 78.125 218.75 L 93.75 218.75 L 93.75 250 L 46.875 250 C 38.246094 250 31.25 256.996094 31.25 265.625 C 31.25 274.253906 38.246094 281.25 46.875 281.25 L 93.75 281.25 L 93.75 312.5 L 78.125 312.5 C 52.238281 312.5 31.25 333.488281 31.25 359.375 L 31.25 375 C 31.25 383.628906 38.246094 390.625 46.875 390.625 C 55.503906 390.625 62.5 383.628906 62.5 375 L 62.5 359.375 C 62.5 350.746094 69.496094 343.75 78.125 343.75 L 93.75 343.75 C 93.75 423.996094 154.53125 491.195312 234.375 499.21875 Z M 234.375 499.21875 "/>
</g>
</svg>
